<svg width="259" height="368" viewBox="0 0 259 368" fill="none" xmlns="http://www.w3.org/2000/svg">
<path d="M169.581 79.271C144.548 66.2261 124.276 22.4601 128.244 0C135.74 0 148.086 1.65146 152.054 1.65148C164.289 1.65154 135.084 25.7639 207.941 71.0136C298.881 127.494 246.632 182.323 216.539 198.838C195.904 210.162 94.1828 230.216 58.7988 253.667C17.2505 281.204 27.4933 331.837 30.3593 364.316C30.9422 370.922 31.3514 366.628 0.597045 366.628C4.23467 316.093 -11.2275 288.492 21.0999 250.364C52.185 213.702 113.502 203.862 172.557 188.269C230.097 173.075 235.194 138.616 232.081 129.806C226.129 112.961 200.004 95.1252 169.581 79.271Z" fill="#D9DCD5"/>
</svg>
