<svg width="275" height="376" viewBox="0 0 275 376" fill="none" xmlns="http://www.w3.org/2000/svg">
<path d="M51.6188 27.4132C58.1972 65.5453 91.0202 78.5973 93.9515 79.9493C96.8829 81.3013 168.992 114.195 199.512 137.703C230.033 161.212 236.539 167.61 249.455 190.666C264.184 216.958 271.037 229.782 273.695 256.896C276.295 283.418 273.668 300.273 262.828 325.526C253.673 346.855 227.895 375.168 227.895 375.168L154.142 372.714C154.142 372.714 204.352 339.369 213.644 319.802C224.642 296.645 226.174 281.646 223.363 257.081C220.733 234.1 216.375 220.593 202.084 200.379C187.987 180.44 174.481 171.762 152.76 156.5C125.061 137.036 102.492 132.932 73.5947 114.547C53.6089 101.831 41.4876 95.5609 27.227 78.8325C11.7656 60.6954 4.22953 49.2407 1.28653 27.5987C-0.0326376 17.8979 1.19447 2.61566 1.19447 2.61566L48.7187 2.44053C49.0919 -2.50563 51.5267 2.43018 51.5267 2.43018L48.7187 2.44053C48.4828 5.56741 49.0708 12.6437 51.6188 27.4132Z" fill="#D9DCD5"/>
</svg>
